<?xml version="1.0" encoding="iso-8859-1"?>
<!-- Generator: Adobe Illustrator 19.0.0, SVG Export Plug-In . SVG Version: 6.00 Build 0)  -->
<svg version="1.1" id="Capa_1" xmlns="http://www.w3.org/2000/svg" xmlns:xlink="http://www.w3.org/1999/xlink" x="0px" y="0px"
	 viewBox="0 0 60 60" style="enable-background:new 0 0 60 60;" xml:space="preserve">
<g>
	<path d="M59,51h-4v-2c0-0.553-0.448-1-1-1h-3c-0.552,0-1,0.447-1,1v1h-2.586C50.89,45.969,53,40.728,53,35
		c0-12.683-10.318-23-23-23c-2.476,0-4.859,0.398-7.095,1.125C23.958,10.314,25.867,6.27,28.566,6H32c0.552,0,1-0.447,1-1
		s-0.448-1-1-1h-3.508h-0.707C26.691,1.372,21.323,0,16,0S5.309,1.372,4.214,4H3.96H1C0.448,4,0,4.447,0,5s0.448,1,1,1h2.893
		c5.316,0.528,6.903,10.886,7.354,15.709C8.577,25.466,7,30.051,7,35c0,12.683,10.318,23,23,23c0.298,0,0.593-0.011,0.888-0.023
		C30.927,57.982,30.96,58,31,58h19v1c0,0.553,0.448,1,1,1h3c0.552,0,1-0.447,1-1v-2h4c0.552,0,1-0.447,1-1v-4
		C60,51.447,59.552,51,59,51z M16,2c4.468,0,7.818,0.997,9.245,2H6.755C8.182,2.997,11.532,2,16,2z M13.015,19.497
		C12.417,14.824,11.081,9.013,8.093,6h16.53c-1.89,1.987-3.188,5.141-4.174,8.074c-0.055,0.025-0.105,0.058-0.16,0.083
		c-0.574,0.269-1.134,0.561-1.681,0.875c-0.122,0.07-0.244,0.138-0.365,0.21c-0.533,0.318-1.05,0.659-1.554,1.018
		c-0.122,0.086-0.244,0.17-0.364,0.259c-0.494,0.366-0.97,0.755-1.433,1.159c-0.113,0.099-0.228,0.193-0.339,0.294
		c-0.463,0.421-0.906,0.864-1.333,1.32C13.154,19.364,13.08,19.426,13.015,19.497z M9,35c0-5.774,2.344-11.009,6.128-14.81
		c0.029-0.03,0.06-0.058,0.09-0.087c0.439-0.435,0.896-0.852,1.372-1.247c0.031-0.026,0.062-0.053,0.093-0.079
		c0.5-0.411,1.019-0.8,1.557-1.165c0.032-0.022,0.066-0.042,0.099-0.064c0.491-0.329,0.999-0.636,1.519-0.924
		c0.079-0.044,0.157-0.089,0.237-0.132C23.047,14.905,26.419,14,30,14c11.58,0,21,9.421,21,21c0,7.173-3.619,13.511-9.123,17.301
		c-0.091,0.062-0.181,0.125-0.272,0.186c-0.513,0.342-1.04,0.666-1.583,0.963c-0.028,0.015-0.056,0.028-0.084,0.043
		c-0.521,0.281-1.057,0.536-1.604,0.774c-0.095,0.041-0.19,0.084-0.286,0.124c-0.574,0.239-1.159,0.456-1.758,0.645
		c-0.058,0.018-0.118,0.033-0.176,0.051C34.178,55.677,32.126,56,30,56C18.42,56,9,46.579,9,35z M39.384,56
		c0.073-0.033,0.143-0.074,0.216-0.107c0.461-0.213,0.916-0.435,1.36-0.676c0.083-0.045,0.163-0.095,0.246-0.141
		c0.385-0.216,0.763-0.444,1.135-0.681c0.13-0.083,0.26-0.163,0.388-0.249c0.4-0.267,0.79-0.546,1.172-0.836
		c0.139-0.106,0.275-0.215,0.412-0.324c0.335-0.267,0.664-0.542,0.983-0.827c0.061-0.054,0.127-0.103,0.187-0.158H50v4H39.384z
		 M53,58h-1v-1v-6v-1h1v2v4V58z M58,55h-3v-2h3V55z"/>
	<path d="M49,35c0-5.064-2.004-9.66-5.245-13.069c-0.013-0.016-0.018-0.036-0.033-0.051c-0.031-0.032-0.065-0.059-0.096-0.091
		c-0.319-0.329-0.656-0.64-0.998-0.945c-0.138-0.124-0.271-0.255-0.411-0.374c-0.29-0.244-0.595-0.469-0.899-0.695
		c-0.213-0.16-0.42-0.328-0.639-0.478c-0.193-0.131-0.397-0.246-0.594-0.37c-0.341-0.216-0.681-0.436-1.034-0.629
		c-0.004-0.002-0.008-0.004-0.011-0.006C36.297,16.798,33.216,16,30,16s-6.297,0.798-9.038,2.291
		c-0.004,0.002-0.008,0.004-0.011,0.006c-0.353,0.193-0.692,0.413-1.034,0.629c-0.198,0.124-0.402,0.239-0.594,0.37
		c-0.219,0.15-0.426,0.319-0.639,0.478c-0.304,0.227-0.61,0.451-0.899,0.695c-0.141,0.119-0.273,0.25-0.411,0.374
		c-0.342,0.306-0.679,0.616-0.998,0.945c-0.031,0.032-0.065,0.059-0.096,0.091c-0.014,0.015-0.02,0.035-0.033,0.051
		C13.004,25.34,11,29.936,11,35c0,10.477,8.523,19,19,19S49,45.477,49,35z M28.294,51.914c-0.187-0.019-0.368-0.057-0.553-0.082
		c-0.37-0.05-0.742-0.096-1.104-0.169c-0.219-0.044-0.43-0.108-0.646-0.16c-0.32-0.078-0.642-0.151-0.955-0.246
		c-0.227-0.07-0.446-0.157-0.669-0.236c-0.291-0.103-0.584-0.2-0.868-0.318c-0.225-0.093-0.441-0.203-0.661-0.306
		c-0.27-0.126-0.542-0.248-0.805-0.388c-0.218-0.116-0.427-0.247-0.639-0.372c-0.25-0.148-0.503-0.293-0.745-0.453
		c-0.209-0.138-0.407-0.289-0.609-0.435c-0.231-0.168-0.464-0.334-0.686-0.513c-0.196-0.158-0.383-0.327-0.571-0.493
		c-0.212-0.187-0.424-0.373-0.627-0.57c-0.182-0.177-0.354-0.363-0.528-0.548c-0.192-0.204-0.384-0.409-0.566-0.623
		c-0.165-0.194-0.322-0.396-0.478-0.598c-0.171-0.221-0.342-0.442-0.502-0.671c-0.147-0.21-0.286-0.427-0.424-0.644
		c-0.15-0.236-0.297-0.473-0.436-0.717c-0.128-0.224-0.247-0.453-0.364-0.684c-0.127-0.25-0.251-0.502-0.366-0.759
		c-0.106-0.237-0.206-0.479-0.301-0.721c-0.103-0.263-0.201-0.528-0.292-0.796c-0.084-0.249-0.161-0.5-0.234-0.754
		c-0.078-0.274-0.15-0.552-0.214-0.831c-0.06-0.258-0.114-0.518-0.162-0.78c-0.052-0.286-0.095-0.574-0.132-0.864
		c-0.034-0.266-0.064-0.533-0.086-0.803c-0.01-0.125-0.012-0.252-0.019-0.377H19v6v2c0,0.266,0.105,0.52,0.293,0.707l1,1
		C20.48,45.895,20.735,46,21,46h2c0.265,0,0.52-0.105,0.707-0.293l1-1C24.895,44.52,25,44.266,25,44v-2v-6h2v6v2
		c0,0.266,0.105,0.52,0.293,0.707l1,1C28.48,45.895,28.735,46,29,46h2c0.265,0,0.52-0.105,0.707-0.293l1-1
		C32.895,44.52,33,44.266,33,44v-2v-6h2v6v2c0,0.266,0.105,0.52,0.293,0.707l1,1C36.48,45.895,36.735,46,37,46h2
		c0.265,0,0.52-0.105,0.707-0.293l1-1C40.895,44.52,41,44.266,41,44v-2v-6h5.949c-0.007,0.125-0.009,0.252-0.019,0.377
		c-0.022,0.27-0.052,0.537-0.086,0.803c-0.037,0.29-0.08,0.579-0.132,0.864c-0.048,0.262-0.102,0.522-0.162,0.78
		c-0.065,0.28-0.136,0.557-0.214,0.831c-0.072,0.254-0.15,0.505-0.234,0.754c-0.091,0.269-0.189,0.534-0.292,0.796
		c-0.096,0.243-0.195,0.484-0.301,0.721c-0.115,0.257-0.239,0.509-0.366,0.759c-0.117,0.231-0.237,0.46-0.364,0.684
		c-0.138,0.244-0.286,0.481-0.436,0.717c-0.138,0.217-0.277,0.434-0.424,0.644c-0.161,0.229-0.331,0.451-0.502,0.671
		c-0.157,0.202-0.313,0.404-0.478,0.598c-0.182,0.214-0.374,0.418-0.566,0.623c-0.174,0.185-0.346,0.371-0.528,0.548
		c-0.202,0.197-0.415,0.383-0.627,0.57c-0.189,0.166-0.375,0.335-0.571,0.493c-0.222,0.179-0.455,0.345-0.686,0.513
		c-0.202,0.147-0.401,0.297-0.609,0.435c-0.242,0.16-0.494,0.305-0.745,0.453c-0.212,0.125-0.421,0.256-0.639,0.372
		c-0.262,0.14-0.534,0.262-0.805,0.388c-0.22,0.103-0.436,0.213-0.661,0.306c-0.284,0.118-0.577,0.216-0.868,0.318
		c-0.223,0.079-0.442,0.166-0.669,0.236c-0.313,0.096-0.635,0.168-0.955,0.246c-0.216,0.052-0.427,0.116-0.646,0.16
		c-0.363,0.073-0.734,0.12-1.104,0.169c-0.185,0.025-0.366,0.063-0.553,0.082C31.145,51.97,30.576,52,30,52
		S28.855,51.97,28.294,51.914z M19.525,21.638c0.335-0.265,0.674-0.523,1.025-0.76c0.338-0.227,0.691-0.433,1.046-0.636
		c0.111-0.064,0.218-0.137,0.33-0.198c0.45-0.244,0.914-0.466,1.388-0.67c0.028-0.012,0.054-0.027,0.082-0.039
		c0.489-0.207,0.99-0.389,1.501-0.551c0.02-0.006,0.038-0.015,0.058-0.021c0.483-0.15,0.977-0.273,1.477-0.381
		c0.053-0.011,0.105-0.029,0.159-0.04c0.464-0.095,0.939-0.161,1.416-0.217c0.092-0.011,0.181-0.031,0.273-0.04
		C28.845,18.03,29.419,18,30,18s1.155,0.03,1.721,0.087c0.092,0.009,0.182,0.03,0.273,0.04c0.477,0.056,0.951,0.122,1.416,0.217
		c0.054,0.011,0.105,0.028,0.159,0.04c0.5,0.107,0.994,0.23,1.477,0.381c0.02,0.006,0.038,0.015,0.058,0.021
		c0.511,0.161,1.013,0.344,1.501,0.551c0.028,0.012,0.054,0.027,0.082,0.039c0.474,0.203,0.938,0.425,1.388,0.67
		c0.112,0.061,0.219,0.134,0.33,0.198c0.355,0.203,0.708,0.409,1.046,0.636c0.351,0.237,0.69,0.496,1.025,0.76
		c0.086,0.068,0.178,0.127,0.263,0.197c0.428,0.352,0.842,0.726,1.241,1.122C41.786,24.667,40.332,26,38.571,26H36h-4h-4h-4h-2.571
		c-1.76,0-3.215-1.333-3.407-3.043c0.398-0.397,0.812-0.771,1.241-1.122C19.347,21.766,19.439,21.706,19.525,21.638z M23,35v5h-2v-5
		v-7h0.429H23V35z M21,42.414L21.414,42h1.172L23,42.414v1.172L22.586,44h-1.172L21,43.586V42.414z M25,28h2v6h-2V28z M31,35v5h-2
		v-5v-7h2V35z M29,42.414L29.414,42h1.172L31,42.414v1.172L30.586,44h-1.172L29,43.586V42.414z M33,28h2v6h-2V28z M39,28v7v5h-2v-5
		v-7h1.571H39z M37,42.414L37.414,42h1.172L39,42.414v1.172L38.586,44h-1.172L37,43.586V42.414z M41,27.419
		c1.124-0.565,2.026-1.507,2.536-2.661c1.974,2.602,3.21,5.782,3.413,9.242H41V27.419z M19,27.419V34h-5.949
		c0.203-3.461,1.439-6.64,3.413-9.242C16.974,25.913,17.876,26.854,19,27.419z"/>
</g>
<g>
</g>
<g>
</g>
<g>
</g>
<g>
</g>
<g>
</g>
<g>
</g>
<g>
</g>
<g>
</g>
<g>
</g>
<g>
</g>
<g>
</g>
<g>
</g>
<g>
</g>
<g>
</g>
<g>
</g>
</svg>
